<svg width="14" height="15" viewBox="0 0 14 15" fill="none" xmlns="http://www.w3.org/2000/svg">
<path d="M10.7416 11.1114L9.60498 12.0349L11.1879 13.983L12.3245 13.0595L10.7416 11.1114Z" fill="#B76035"/>
<path d="M10.7413 11.1113L10.2271 11.5291L11.8099 13.4773L12.3242 13.0594L10.7413 11.1113Z" fill="#A04C27"/>
<path d="M8.71222 12.7607L11.6334 10.387C11.6981 10.3344 11.7079 10.2394 11.6554 10.1748L11.0207 9.39372C10.9682 9.32906 10.8732 9.31921 10.8085 9.37177L7.88728 11.7455C7.82262 11.7981 7.81277 11.8931 7.86533 11.9577L8.49999 12.7388C8.55255 12.8034 8.64756 12.8133 8.71222 12.7607Z" fill="#B76035"/>
<path d="M11.3235 10.6391L11.6338 10.387C11.6984 10.3344 11.7083 10.2394 11.6557 10.1748L11.021 9.39372C10.9685 9.32906 10.8735 9.31921 10.8088 9.37177L10.4985 9.6239L11.3235 10.6391Z" fill="#A04C27"/>
<path d="M8.44887 11.2892L1.05735 2.19289C1.03942 2.17083 1.02812 2.14417 1.02469 2.11599L0.767578 0.00344849L9.34591 10.5603L8.44887 11.2892Z" fill="#B7C1CA"/>
<path d="M10.2473 9.82802L2.8558 0.731661C2.83787 0.709601 2.81411 0.693077 2.78719 0.683937L0.771973 3.05176e-05L9.3503 10.5569L10.2473 9.82802Z" fill="#6B6C8A"/>
<path d="M10.2473 9.82802L9.88157 10.1252L2.52085 1.06661C2.50292 1.04455 2.47916 1.02803 2.45224 1.01889L1.27529 0.619482L0.771973 0L2.78716 0.683965C2.81405 0.693105 2.83784 0.709629 2.85577 0.731689L10.2473 9.82802Z" fill="#5D5F7A"/>
<path d="M9.76016 12.2508C10.4143 12.2508 10.9446 11.7205 10.9446 11.0663C10.9446 10.4121 10.4143 9.88184 9.76016 9.88184C9.10599 9.88184 8.57568 10.4121 8.57568 11.0663C8.57568 11.7205 9.10599 12.2508 9.76016 12.2508Z" fill="#FFDBA9"/>
<path d="M10.5075 11.9855C10.2058 12.2308 9.81982 12.3029 9.46979 12.2142C9.63121 12.1732 9.7866 12.0975 9.92421 11.9855C10.432 11.573 10.509 10.8271 10.0965 10.3193C9.92934 10.1135 9.70727 9.97833 9.46826 9.91827C9.90156 9.80814 10.3792 9.94935 10.6797 10.3193C11.0922 10.8271 11.0153 11.573 10.5075 11.9855Z" fill="#FFC473"/>
<path d="M12.1412 15C12.6957 15 13.1452 14.5505 13.1452 13.996C13.1452 13.4415 12.6957 12.992 12.1412 12.992C11.5867 12.992 11.1372 13.4415 11.1372 13.996C11.1372 14.5505 11.5867 15 12.1412 15Z" fill="#B76035"/>
<path d="M12.7744 14.7751C12.444 15.0437 11.9944 15.0675 11.645 14.8689C11.8104 14.8409 11.9712 14.7712 12.1106 14.658C12.5409 14.3086 12.6064 13.6762 12.2567 13.2458C12.1755 13.146 12.0792 13.0657 11.9739 13.0057C12.3188 12.9477 12.6842 13.0721 12.9205 13.3626C13.2702 13.7932 13.2047 14.4254 12.7744 14.7751Z" fill="#A04C27"/>
<path d="M1.58897 13.0604L2.72559 13.9839L4.30847 12.0358L3.17186 11.1123L1.58897 13.0604Z" fill="#B76035"/>
<path d="M1.58878 13.0603L2.10303 13.4781L3.68591 11.53L3.17166 11.1122L1.58878 13.0603Z" fill="#A04C27"/>
<path d="M5.20059 12.7607L2.27937 10.387C2.21471 10.3344 2.20486 10.2394 2.25742 10.1748L2.89208 9.39372C2.94464 9.32906 3.03965 9.31921 3.10431 9.37177L6.02553 11.7455C6.09019 11.7981 6.10003 11.8931 6.04747 11.9577L5.41281 12.7388C5.36026 12.8034 5.26525 12.8133 5.20059 12.7607Z" fill="#B76035"/>
<path d="M2.58965 10.6391L2.27937 10.387C2.21471 10.3344 2.20486 10.2394 2.25742 10.1748L2.89208 9.39372C2.94464 9.32906 3.03965 9.31921 3.10431 9.37177L3.41459 9.6239L2.58965 10.6391Z" fill="#A04C27"/>
<path d="M5.46394 11.2892L12.8555 2.19289C12.8734 2.17083 12.8847 2.14417 12.8881 2.11599L13.1452 0.00344849L4.56689 10.5603L5.46394 11.2892Z" fill="#B7C1CA"/>
<path d="M3.66553 9.82802L11.057 0.731661C11.075 0.709601 11.0987 0.693077 11.1257 0.683937L13.1409 3.05176e-05L4.56254 10.5569L3.66553 9.82802Z" fill="#6B6C8A"/>
<path d="M3.66553 9.82802L4.03124 10.1252L11.392 1.06661C11.4099 1.04455 11.4337 1.02803 11.4606 1.01889L12.6375 0.619482L13.1408 0L11.1257 0.683965C11.0988 0.693105 11.075 0.709629 11.057 0.731689L3.66553 9.82802Z" fill="#5D5F7A"/>
<path d="M4.15225 12.2508C4.80641 12.2508 5.33672 11.7205 5.33672 11.0663C5.33672 10.4121 4.80641 9.88184 4.15225 9.88184C3.49808 9.88184 2.96777 10.4121 2.96777 11.0663C2.96777 11.7205 3.49808 12.2508 4.15225 12.2508Z" fill="#FFDBA9"/>
<path d="M3.40534 11.9855C3.70707 12.2308 4.09299 12.3029 4.44303 12.2142C4.28161 12.1732 4.12622 12.0975 3.98861 11.9855C3.48078 11.573 3.40384 10.8271 3.81632 10.3193C3.98348 10.1135 4.20555 9.97833 4.44456 9.91827C4.01126 9.80814 3.5336 9.94935 3.23307 10.3193C2.82057 10.8271 2.89751 11.573 3.40534 11.9855Z" fill="#FFC473"/>
<path d="M1.77158 15C2.32608 15 2.77559 14.5505 2.77559 13.996C2.77559 13.4415 2.32608 12.992 1.77158 12.992C1.21709 12.992 0.767578 13.4415 0.767578 13.996C0.767578 14.5505 1.21709 15 1.77158 15Z" fill="#B76035"/>
<path d="M1.13846 14.7751C1.46887 15.0437 1.91846 15.0675 2.26788 14.8689C2.10253 14.8409 1.94169 14.7712 1.8023 14.658C1.37201 14.3086 1.30653 13.6762 1.65625 13.2458C1.73743 13.146 1.83367 13.0657 1.93899 13.0057C1.59411 12.9477 1.22869 13.0721 0.992442 13.3626C0.642696 13.7932 0.708174 14.4254 1.13846 14.7751Z" fill="#A04C27"/>
</svg>
