<svg width="15" height="15" viewBox="0 0 15 15" fill="none" xmlns="http://www.w3.org/2000/svg">
<path d="M7.83469 0.445986H7.6117V0.222993C7.6117 0.0998415 7.51186 0 7.38871 0C7.26555 0 7.16571 0.0998415 7.16571 0.222993V0.445986H6.94272C6.81957 0.445986 6.71973 0.545828 6.71973 0.66898C6.71973 0.792131 6.81957 0.891973 6.94272 0.891973H7.16571V2.1556H7.6117V0.891973H7.83469C7.95784 0.891973 8.05769 0.792131 8.05769 0.66898C8.05769 0.545828 7.95784 0.445986 7.83469 0.445986Z" fill="#FF9A42"/>
<path d="M11.4174 5.58496H10.5254V10.5205H11.4174C12.7803 10.5205 13.8852 9.41569 13.8852 8.05275C13.8852 6.68982 12.7803 5.58496 11.4174 5.58496Z" fill="#DB2116"/>
<path d="M12.9927 8.05275C12.9927 6.68982 11.8878 5.58496 10.5249 5.58496H3.35939C1.99646 5.58496 0.891602 6.68982 0.891602 8.05275C0.891602 9.41569 1.99646 10.5205 3.35939 10.5205H10.5249C11.8878 10.5205 12.9927 9.41569 12.9927 8.05275Z" fill="#FF3A2F"/>
<path d="M10.9713 2.89893C9.32076 2.89893 7.91587 3.94967 7.38851 5.41869C6.86114 3.94967 5.45626 2.89893 3.80575 2.89893C1.70391 2.89893 0 4.60283 0 6.70468C0 8.18027 0.839822 9.45965 2.06753 10.0911L3.59519 9.61081C2.08424 9.50291 0.891973 8.24309 0.891973 6.70468C0.891973 5.09544 2.19651 3.7909 3.80575 3.7909C5.41499 3.7909 6.71953 5.09544 6.71953 6.70468H8.05749C8.05749 5.09544 9.36203 3.7909 10.9713 3.7909C12.5805 3.7909 13.885 5.09544 13.885 6.70468C13.885 4.60283 12.9769 2.89893 10.9713 2.89893Z" fill="#FFBA48"/>
<path d="M10.9717 2.89893C12.5809 2.89893 13.8855 4.60283 13.8855 6.70468C13.8855 8.24309 12.6932 9.50288 11.1823 9.61081L12.7099 10.0911C13.9376 9.45965 14.7774 8.18027 14.7774 6.70468C14.7774 4.60283 13.0735 2.89893 10.9717 2.89893Z" fill="#FF9A42"/>
<path d="M7.38814 1.56104L7.09082 2.45301L7.38814 3.34498C7.88078 3.34498 8.28012 2.94564 8.28012 2.45301C8.28012 1.96037 7.88075 1.56104 7.38814 1.56104Z" fill="#2FB3EA"/>
<path d="M6.49707 2.45301C6.49707 2.94564 6.89641 3.34498 7.38904 3.34498V1.56104C6.89641 1.56104 6.49707 1.96037 6.49707 2.45301Z" fill="#25D4F2"/>
<path d="M7.38904 3.34473C6.89641 3.34473 6.49707 3.74406 6.49707 4.2367V9.648H8.28102V4.2367C8.28102 3.74406 7.88165 3.34473 7.38904 3.34473Z" fill="#FF9A42"/>
<path d="M7.38901 4.45966C7.51216 4.45966 7.612 4.35982 7.612 4.23667C7.612 4.11351 7.51216 4.01367 7.38901 4.01367C7.26585 4.01367 7.16602 4.11351 7.16602 4.23667C7.16602 4.35982 7.26585 4.45966 7.38901 4.45966Z" fill="white"/>
<path d="M7.38901 6.32733C7.51216 6.32733 7.612 6.2275 7.612 6.10434C7.612 5.98119 7.51216 5.88135 7.38901 5.88135C7.26585 5.88135 7.16602 5.98119 7.16602 6.10434C7.16602 6.2275 7.26585 6.32733 7.38901 6.32733Z" fill="white"/>
<path d="M7.38901 8.19501C7.51216 8.19501 7.612 8.09517 7.612 7.97202C7.612 7.84886 7.51216 7.74902 7.38901 7.74902C7.26585 7.74902 7.16602 7.84886 7.16602 7.97202C7.16602 8.09517 7.26585 8.19501 7.38901 8.19501Z" fill="white"/>
<path d="M10.8598 9.77648L7.38853 9.64795L3.91727 9.77648L2.18164 10.5399L7.38853 12.3239L12.5954 10.5399L10.8598 9.77648Z" fill="#FF3A2F"/>
<path d="M12.5954 10.5401C11.9597 10.5401 11.3477 10.32 10.8598 9.92531C10.3718 10.32 9.75983 10.5401 9.12415 10.5401C8.48847 10.5401 7.87649 10.32 7.38852 9.92531C6.90058 10.32 6.28857 10.5401 5.65289 10.5401C5.01721 10.5401 4.40523 10.3201 3.91726 9.92531C3.42932 10.3201 2.81734 10.5401 2.18163 10.5401C1.39039 10.5401 0.635898 10.1992 0.111537 9.6048C-0.0513964 9.4201 -0.0337651 9.13826 0.150962 8.97533C0.335631 8.81234 0.617494 8.83003 0.780428 9.01476C1.13552 9.41727 1.64624 9.64812 2.1816 9.64812C2.71702 9.64812 3.22773 9.41727 3.58277 9.01476C3.66745 8.91878 3.78923 8.8638 3.91723 8.8638C4.0452 8.8638 4.16701 8.91878 4.25169 9.01476C4.60675 9.41727 5.11747 9.64812 5.65286 9.64812C6.18825 9.64812 6.69896 9.41727 7.05403 9.01476C7.13871 8.91878 7.26049 8.8638 7.38849 8.8638C7.51649 8.8638 7.63827 8.91878 7.72295 9.01476C8.07801 9.41727 8.58873 9.64812 9.12412 9.64812C9.65951 9.64812 10.1702 9.41724 10.5253 9.01476C10.61 8.91878 10.7318 8.8638 10.8597 8.8638C10.9877 8.8638 11.1095 8.91878 11.1942 9.01476C11.5493 9.41727 12.06 9.64812 12.5954 9.64812C13.1308 9.64812 13.6415 9.41727 13.9966 9.01476C14.1595 8.83006 14.4413 8.8124 14.626 8.97533C14.8108 9.13826 14.8284 9.4201 14.6655 9.60483C14.1412 10.1992 13.3867 10.5401 12.5954 10.5401Z" fill="#FFBA48"/>
<path d="M11.6553 10.9863H13.4392V14.5542H11.6553V10.9863Z" fill="#FF9A42"/>
<path d="M1.33789 10.9863H12.547V14.5542H1.33789V10.9863Z" fill="#FFBA48"/>
<path d="M10.1911 13.2162C10.4374 13.2162 10.6371 13.0165 10.6371 12.7702C10.6371 12.5239 10.4374 12.3242 10.1911 12.3242C9.94479 12.3242 9.74512 12.5239 9.74512 12.7702C9.74512 13.0165 9.94479 13.2162 10.1911 13.2162Z" fill="white"/>
<path d="M4.58661 13.2162C4.83292 13.2162 5.0326 13.0165 5.0326 12.7702C5.0326 12.5239 4.83292 12.3242 4.58661 12.3242C4.3403 12.3242 4.14062 12.5239 4.14062 12.7702C4.14062 13.0165 4.3403 13.2162 4.58661 13.2162Z" fill="white"/>
<path d="M7.83503 12.3242H6.94306C6.69675 12.3242 6.49707 12.5239 6.49707 12.7702C6.49707 13.0165 6.69675 13.2162 6.94306 13.2162H7.83503C8.08133 13.2162 8.28102 13.0165 8.28102 12.7702C8.28102 12.5239 8.08133 12.3242 7.83503 12.3242Z" fill="#FF3A2F"/>
<path d="M2.22956 12.3242H1.33759C1.09128 12.3242 0.891602 12.5239 0.891602 12.7702C0.891602 13.0165 1.09128 13.2162 1.33759 13.2162H2.22956C2.47586 13.2162 2.67555 13.0165 2.67555 12.7702C2.67555 12.5239 2.47586 12.3242 2.22956 12.3242Z" fill="#0ABF52"/>
<path d="M13.4388 10.54H12.5469V11.432H13.4388C13.6852 11.432 13.8848 11.2323 13.8848 10.986C13.8848 10.7397 13.6852 10.54 13.4388 10.54Z" fill="#FF7A3C"/>
<path d="M12.9927 10.986C12.9927 10.7397 12.793 10.54 12.5467 10.54H1.33759C1.09128 10.54 0.891602 10.7397 0.891602 10.986C0.891602 11.2323 1.09128 11.432 1.33759 11.432H12.5467C12.793 11.432 12.9927 11.2323 12.9927 10.986Z" fill="#FF9A42"/>
<path d="M13.4388 14.1079H12.5469V14.9999H13.4388C13.6852 14.9999 13.8848 14.8002 13.8848 14.5539C13.8848 14.3076 13.6852 14.1079 13.4388 14.1079Z" fill="#FF7A3C"/>
<path d="M12.9927 14.5539C12.9927 14.3076 12.793 14.1079 12.5467 14.1079H1.33759C1.09128 14.1079 0.891602 14.3076 0.891602 14.5539C0.891602 14.8002 1.09128 14.9999 1.33759 14.9999H12.5467C12.793 14.9999 12.9927 14.8002 12.9927 14.5539Z" fill="#FF9A42"/>
<path d="M13.4388 12.3242H12.5469V13.2162H13.4388C13.6852 13.2162 13.8848 13.0165 13.8848 12.7702C13.8848 12.5239 13.6852 12.3242 13.4388 12.3242Z" fill="#1DA575"/>
<path d="M12.5475 13.2162C12.7939 13.2162 12.9935 13.0165 12.9935 12.7702C12.9935 12.5239 12.7939 12.3242 12.5475 12.3242C12.3012 12.3242 12.1016 12.5239 12.1016 12.7702C12.1016 13.0165 12.3012 13.2162 12.5475 13.2162Z" fill="#0ABF52"/>
</svg>
