<svg width="37" height="37" viewBox="0 0 37 37" fill="none" xmlns="http://www.w3.org/2000/svg">
<path d="M33.2063 34.2901H31.0383V36.4581H33.2063C33.805 36.4581 34.2903 35.9727 34.2903 35.3741C34.2903 34.7754 33.805 34.2901 33.2063 34.2901Z" fill="#FF7A3C"/>
<path d="M32.1221 35.3741C32.1221 34.7754 31.6368 34.2901 31.0381 34.2901H3.79395C3.1953 34.2901 2.70996 34.7754 2.70996 35.3741C2.70996 35.9727 3.1953 36.4581 3.79395 36.4581H31.0381C31.6368 36.4581 32.1221 35.9727 32.1221 35.3741Z" fill="#FF9A42"/>
<path d="M28.292 13.5749H26.124V25.5711H28.292C31.6047 25.5711 34.2901 22.8857 34.2901 19.573C34.2901 16.2603 31.6047 13.5749 28.292 13.5749Z" fill="#DB2116"/>
<path d="M32.1221 19.573C32.1221 16.2603 29.4367 13.575 26.1241 13.575H8.70802C5.39536 13.575 2.70996 16.2603 2.70996 19.573C2.70996 22.8857 5.39536 25.5711 8.70802 25.5711H26.1241C29.4367 25.5711 32.1221 22.8857 32.1221 19.573Z" fill="#FF3A2F"/>
<path d="M27.2081 7.04593C23.1964 7.04593 19.7818 9.5998 18.5 13.1703C17.2183 9.59987 13.8036 7.04593 9.79201 7.04593C4.6834 7.04593 0.541992 11.1873 0.541992 16.2959C0.541992 19.8824 2.58321 22.992 5.56721 24.5268L9.28023 23.3594C5.60782 23.0971 2.70997 20.0351 2.70997 16.2959C2.70997 12.3846 5.8807 9.2139 9.79201 9.2139C13.7033 9.2139 16.8741 12.3846 16.8741 16.2959H20.126C20.126 12.3846 23.2967 9.2139 27.2081 9.2139C31.1194 9.2139 34.2901 12.3846 34.2901 16.2959C34.2901 11.1873 32.0829 7.04593 27.2081 7.04593Z" fill="#FFBA48"/>
<path d="M27.2083 7.0459C31.1196 7.0459 34.2903 11.1873 34.2903 16.296C34.2903 20.0351 31.3925 23.0971 27.7201 23.3595L31.4331 24.5268C34.4171 22.9921 36.4583 19.8824 36.4583 16.296C36.4583 11.1873 32.3169 7.0459 27.2083 7.0459Z" fill="#FF9A42"/>
<path d="M18.5002 3.79398L17.7776 5.96196L18.5002 8.12994C19.6976 8.12994 20.6682 7.15933 20.6682 5.96196C20.6682 4.76458 19.6976 3.79398 18.5002 3.79398Z" fill="#2FB3EA"/>
<path d="M16.3323 5.96196C16.3323 7.15933 17.3029 8.12994 18.5003 8.12994V3.79398C17.3029 3.79398 16.3323 4.76465 16.3323 5.96196Z" fill="#25D4F2"/>
<path d="M18.5003 8.12994C17.3029 8.12994 16.3323 9.10055 16.3323 10.2979V23.4503H20.6682V10.2979C20.6682 9.10062 19.6976 8.12994 18.5003 8.12994Z" fill="#FF9A42"/>
<path d="M26.9371 23.7627L18.5 23.4503L10.063 23.7627L5.84448 25.6182L18.5 29.9542L31.1556 25.6182L26.9371 23.7627Z" fill="#FF3A2F"/>
<path d="M31.1556 25.6182C29.6106 25.6182 28.1231 25.0834 26.9371 24.124C25.7511 25.0834 24.2636 25.6182 22.7186 25.6182C21.1735 25.6182 19.6861 25.0834 18.5001 24.124C17.3141 25.0834 15.8266 25.6182 14.2815 25.6182C12.7365 25.6182 11.2491 25.0834 10.063 24.124C8.87708 25.0834 7.38963 25.6182 5.84452 25.6182C3.92138 25.6182 2.08757 24.7897 0.813088 23.3449C0.417071 22.896 0.459925 22.211 0.908912 21.815C1.35775 21.4188 2.04283 21.4618 2.43885 21.9108C3.30192 22.8892 4.54323 23.4502 5.84445 23.4502C7.14581 23.4502 8.38712 22.8892 9.25004 21.9108C9.45586 21.6776 9.75186 21.5439 10.063 21.5439C10.374 21.5439 10.6701 21.6776 10.8759 21.9108C11.7389 22.8892 12.9802 23.4502 14.2815 23.4502C15.5828 23.4502 16.8241 22.8892 17.6871 21.9108C17.8929 21.6776 18.1889 21.5439 18.5 21.5439C18.8111 21.5439 19.1071 21.6776 19.3129 21.9108C20.1759 22.8892 21.4172 23.4502 22.7185 23.4502C24.0198 23.4502 25.2611 22.8891 26.1241 21.9108C26.3299 21.6776 26.6259 21.5439 26.937 21.5439C27.2481 21.5439 27.5441 21.6776 27.7499 21.9108C28.6129 22.8892 29.8542 23.4502 31.1555 23.4502C32.4569 23.4502 33.6982 22.8892 34.5611 21.9108C34.9572 21.4619 35.6422 21.419 36.0911 21.815C36.5401 22.211 36.583 22.896 36.187 23.345C34.9127 24.7897 33.0788 25.6182 31.1556 25.6182Z" fill="#FFBA48"/>
<path d="M28.8704 26.7022H33.2063V35.3741H28.8704V26.7022Z" fill="#FF9A42"/>
<path d="M3.79395 26.7022H31.0381V35.3741H3.79395V26.7022Z" fill="#FFBA48"/>
<path d="M25.311 32.1221C25.9097 32.1221 26.395 31.6368 26.395 31.0382C26.395 30.4395 25.9097 29.9542 25.311 29.9542C24.7124 29.9542 24.2271 30.4395 24.2271 31.0382C24.2271 31.6368 24.7124 32.1221 25.311 32.1221Z" fill="white"/>
<path d="M11.689 32.1221C12.2876 32.1221 12.773 31.6368 12.773 31.0382C12.773 30.4395 12.2876 29.9542 11.689 29.9542C11.0903 29.9542 10.605 30.4395 10.605 31.0382C10.605 31.6368 11.0903 32.1221 11.689 32.1221Z" fill="white"/>
<path d="M19.584 29.9542H17.416C16.8174 29.9542 16.332 30.4395 16.332 31.0382C16.332 31.6368 16.8174 32.1221 17.416 32.1221H19.584C20.1827 32.1221 20.668 31.6368 20.668 31.0382C20.668 30.4395 20.1827 29.9542 19.584 29.9542Z" fill="#FF3A2F"/>
<path d="M5.96193 29.9542H3.79395C3.1953 29.9542 2.70996 30.4395 2.70996 31.0382C2.70996 31.6368 3.1953 32.1221 3.79395 32.1221H5.96193C6.56059 32.1221 7.04592 31.6368 7.04592 31.0382C7.04592 30.4395 6.56059 29.9542 5.96193 29.9542Z" fill="#0ABF52"/>
<path d="M33.2063 25.6182H31.0383V27.7862H33.2063C33.805 27.7862 34.2903 27.3009 34.2903 26.7022C34.2903 26.1036 33.805 25.6182 33.2063 25.6182Z" fill="#FF7A3C"/>
<path d="M32.1221 26.7022C32.1221 26.1036 31.6368 25.6182 31.0381 25.6182H3.79395C3.1953 25.6182 2.70996 26.1036 2.70996 26.7022C2.70996 27.3009 3.1953 27.7862 3.79395 27.7862H31.0381C31.6368 27.7862 32.1221 27.3009 32.1221 26.7022Z" fill="#FF9A42"/>
<path d="M33.2063 29.9542H31.0383V32.1221H33.2063C33.805 32.1221 34.2903 31.6368 34.2903 31.0382C34.2903 30.4395 33.805 29.9542 33.2063 29.9542Z" fill="#1DA575"/>
<path d="M31.0383 32.1221C31.637 32.1221 32.1223 31.6368 32.1223 31.0382C32.1223 30.4395 31.637 29.9542 31.0383 29.9542C30.4397 29.9542 29.9543 30.4395 29.9543 31.0382C29.9543 31.6368 30.4397 32.1221 31.0383 32.1221Z" fill="#0ABF52"/>
<path d="M18.5002 10.8399C18.7996 10.8399 19.0422 10.5973 19.0422 10.2979C19.0422 9.99858 18.7996 9.75592 18.5002 9.75592C18.2009 9.75592 17.9583 9.99858 17.9583 10.2979C17.9583 10.5973 18.2009 10.8399 18.5002 10.8399Z" fill="black"/>
<path d="M18.5002 15.3789C18.7996 15.3789 19.0422 15.1363 19.0422 14.8369C19.0422 14.5376 18.7996 14.295 18.5002 14.295C18.2009 14.295 17.9583 14.5376 17.9583 14.8369C17.9583 15.1363 18.2009 15.3789 18.5002 15.3789Z" fill="black"/>
<path d="M18.5 19.918C18.7993 19.918 19.042 19.6753 19.042 19.376C19.042 19.0766 18.7993 18.834 18.5 18.834C18.2007 18.834 17.958 19.0766 17.958 19.376C17.958 19.6753 18.2007 19.918 18.5 19.918Z" fill="black"/>
<path d="M25.311 29.4122C24.4144 29.4122 23.6851 30.1416 23.6851 31.0382C23.6851 31.9348 24.4144 32.6641 25.311 32.6641C26.2076 32.6641 26.937 31.9348 26.937 31.0382C26.937 30.1416 26.2076 29.4122 25.311 29.4122ZM25.311 31.5802C25.0122 31.5802 24.769 31.337 24.769 31.0382C24.769 30.7393 25.0122 30.4962 25.311 30.4962C25.6099 30.4962 25.853 30.7393 25.853 31.0382C25.853 31.337 25.6099 31.5802 25.311 31.5802Z" fill="black"/>
<path d="M11.689 29.4122C10.7924 29.4122 10.063 30.1416 10.063 31.0382C10.063 31.9348 10.7924 32.6641 11.689 32.6641C12.5856 32.6641 13.315 31.9348 13.315 31.0382C13.315 30.1416 12.5856 29.4122 11.689 29.4122ZM11.689 31.5802C11.3901 31.5802 11.147 31.337 11.147 31.0382C11.147 30.7393 11.3901 30.4962 11.689 30.4962C11.9879 30.4962 12.231 30.7393 12.231 31.0382C12.231 31.337 11.9879 31.5802 11.689 31.5802Z" fill="black"/>
<path d="M19.584 29.4122H17.416C16.5194 29.4122 15.79 30.1416 15.79 31.0382C15.79 31.9348 16.5194 32.6641 17.416 32.6641H19.584C20.4806 32.6641 21.21 31.9348 21.21 31.0382C21.21 30.1416 20.4806 29.4122 19.584 29.4122ZM19.584 31.5802H17.416C17.1171 31.5802 16.874 31.337 16.874 31.0382C16.874 30.7393 17.1171 30.4962 17.416 30.4962H19.584C19.8829 30.4962 20.126 30.7393 20.126 31.0382C20.126 31.337 19.8829 31.5802 19.584 31.5802Z" fill="black"/>
<path d="M36.4498 21.4085C36.2483 21.2307 36.0144 21.1133 35.77 21.0524C36.5781 19.606 37.0001 17.9858 37.0001 16.2959C37.0001 10.8966 32.6075 6.50392 27.2081 6.50392C24.8312 6.50392 22.5886 7.34401 20.8112 8.88435C20.6315 8.59168 20.3979 8.33549 20.1242 8.1299C20.7831 7.6351 21.2101 6.84747 21.2101 5.96193C21.2101 4.65319 20.2776 3.55829 19.0421 3.30652V2.16797H19.5841C19.8834 2.16797 20.1261 1.9253 20.1261 1.62598C20.1261 1.32665 19.8834 1.08399 19.5841 1.08399H19.0421V0.541993C19.0421 0.242668 18.7994 0 18.5001 0C18.2008 0 17.9581 0.242668 17.9581 0.541993V1.08399H17.4161C17.1168 1.08399 16.8741 1.32665 16.8741 1.62598C16.8741 1.9253 17.1168 2.16797 17.4161 2.16797H17.9581V3.30652C16.7227 3.55829 15.7901 4.65319 15.7901 5.96193C15.7901 6.84747 16.2172 7.6351 16.876 8.1299C16.6023 8.33549 16.3687 8.59168 16.189 8.88435C14.4115 7.34401 12.169 6.50392 9.79208 6.50392C4.39274 6.50392 6.73136e-05 10.8966 6.73136e-05 16.2959C6.73136e-05 17.9854 0.42181 19.6051 1.22952 21.0512C0.980641 21.1135 0.748307 21.2339 0.550443 21.4085C0.224742 21.6958 0.0304189 22.0928 0.00324701 22.5263C-0.0238527 22.9597 0.119378 23.3778 0.406707 23.7035C1.06584 24.4507 1.86373 25.0449 2.74422 25.4619C2.39214 25.7604 2.16804 26.2055 2.16804 26.7021C2.16804 27.4087 2.62122 28.0112 3.25203 28.2349V29.505C2.62115 29.7286 2.16804 30.3315 2.16804 31.0381C2.16804 31.7447 2.62122 32.3471 3.25203 32.5708V33.8413C2.62122 34.065 2.16804 34.6674 2.16804 35.374C2.16804 36.2706 2.89742 37 3.79402 37H33.2062C34.1028 37 34.8322 36.2706 34.8322 35.374C34.8322 34.6674 34.379 34.065 33.7482 33.8413V32.5708C34.379 32.3471 34.8322 31.7447 34.8322 31.0381C34.8322 30.3315 34.3791 29.7286 33.7482 29.505V28.2349C34.379 28.0112 34.8322 27.4087 34.8322 26.7021C34.8322 26.2054 34.6081 25.7604 34.2561 25.4619C35.1366 25.0449 35.9344 24.4507 36.5936 23.7035C36.8809 23.3778 37.0242 22.9596 36.997 22.5262C36.9699 22.0927 36.7755 21.6958 36.4498 21.4085ZM27.2081 7.58791C32.0098 7.58791 35.9162 11.4943 35.9162 16.2959C35.9162 18.2248 35.2981 20.0513 34.1292 21.5798C33.3702 22.4241 32.289 22.9082 31.1556 22.9082C31.1054 22.9082 31.0554 22.9061 31.0054 22.9042C31.9016 22.3868 32.6958 21.6889 33.3178 20.857C34.3085 19.532 34.8322 17.9548 34.8322 16.2959C34.8322 12.092 31.412 8.67189 27.2081 8.67189C24.8224 8.67189 22.6315 9.77185 21.2101 11.5862V10.2979C21.2101 10.1978 21.2042 10.0991 21.1936 10.0018C22.8215 8.44332 24.9464 7.58791 27.2081 7.58791ZM21.2101 14.1169H28.2921C30.7067 14.1169 32.8365 15.7138 33.5205 18.0164C32.966 20.0748 31.4331 21.7565 29.3515 22.476C28.9034 22.2489 28.4965 21.9377 28.1565 21.5523C27.848 21.2026 27.4035 21.0019 26.9371 21.0019C26.4707 21.0019 26.0263 21.2026 25.7177 21.5523C24.9575 22.414 23.8644 22.9083 22.7186 22.9083C22.1958 22.9083 21.6844 22.8043 21.2101 22.6106V14.1169ZM21.5394 13.0329C22.6963 11.0187 24.8403 9.75588 27.2081 9.75588C30.7002 9.75588 33.5617 12.507 33.7394 15.9556C32.551 14.1704 30.5228 13.0329 28.2921 13.0329H21.5394ZM16.8741 5.96193C16.8741 5.06532 17.6035 4.33595 18.5001 4.33595C19.3967 4.33595 20.1261 5.06532 20.1261 5.96193C20.1261 6.85853 19.3967 7.58791 18.5001 7.58791C17.6035 7.58791 16.8741 6.85853 16.8741 5.96193ZM18.5001 8.67189C19.3967 8.67189 20.1261 9.40127 20.1261 10.2979V21.9503C19.9824 21.8279 19.846 21.6956 19.7195 21.5523C19.4109 21.2025 18.9665 21.0019 18.5001 21.0019C18.0337 21.0019 17.5893 21.2025 17.2807 21.5523C17.1542 21.6956 17.0177 21.8279 16.8741 21.9503V10.2979C16.8741 9.40127 17.6035 8.67189 18.5001 8.67189ZM7.64882 22.476C5.56721 21.7565 4.03423 20.0748 3.47974 18.0164C4.16373 15.7138 6.29355 14.1169 8.70809 14.1169H15.7901V22.6105C15.3159 22.8043 14.8044 22.9082 14.2816 22.9082C13.1357 22.9082 12.0426 22.414 11.2825 21.5523C10.9739 21.2025 10.5295 21.0019 10.0631 21.0019C9.59667 21.0019 9.15224 21.2025 8.84366 21.5523C8.5038 21.9376 8.09694 22.2489 7.64882 22.476ZM3.26084 15.9556C3.43847 12.507 6.30005 9.75588 9.79208 9.75588C12.1599 9.75588 14.3039 11.0187 15.4608 13.0329H8.70809C6.47732 13.0329 4.44925 14.1704 3.26084 15.9556ZM9.79208 7.58791C12.0537 7.58791 14.1787 8.44331 15.8066 10.0019C15.796 10.0991 15.7901 10.1979 15.7901 10.2979V11.5862C14.3687 9.77185 12.1778 8.67189 9.79208 8.67189C5.58816 8.67189 2.16804 12.092 2.16804 16.2959C2.16804 17.9548 2.69168 19.532 3.68237 20.857C4.30436 21.6889 5.09856 22.3868 5.9948 22.9042C5.94479 22.9061 5.89486 22.9082 5.84463 22.9082C4.71143 22.9082 3.63027 22.4242 2.87126 21.5799C1.70229 20.0514 1.08413 18.2248 1.08413 16.2959C1.08405 11.4943 4.99045 7.58791 9.79208 7.58791ZM33.2062 35.9161H3.79402C3.49513 35.9161 3.25203 35.673 3.25203 35.3741C3.25203 35.0752 3.49513 34.8321 3.79402 34.8321H33.2062C33.5051 34.8321 33.7482 35.0752 33.7482 35.3741C33.7482 35.673 33.5051 35.9161 33.2062 35.9161ZM33.2062 31.5801H31.0382C30.7393 31.5801 30.4962 31.337 30.4962 31.0381C30.4962 30.7393 30.7393 30.4962 31.0382 30.4962C31.3375 30.4962 31.5802 30.2535 31.5802 29.9542C31.5802 29.6548 31.3375 29.4122 31.0382 29.4122C30.1416 29.4122 29.4122 30.1415 29.4122 31.0381C29.4122 31.9347 30.1416 32.6641 31.0382 32.6641H32.6642V33.7481H4.33601V32.6641H5.96199C6.85859 32.6641 7.58797 31.9347 7.58797 31.0381C7.58797 30.1415 6.85859 29.4122 5.96199 29.4122C5.66267 29.4122 5.42 29.6548 5.42 29.9542C5.42 30.2535 5.66267 30.4962 5.96199 30.4962C6.26088 30.4962 6.50399 30.7393 6.50399 31.0381C6.50399 31.337 6.26088 31.5801 5.96199 31.5801H3.79402C3.49513 31.5801 3.25203 31.337 3.25203 31.0381C3.25203 30.7393 3.49513 30.4962 3.79402 30.4962C4.09334 30.4962 4.33601 30.2535 4.33601 29.9542V28.3282H32.6642V29.9542C32.6642 30.2535 32.9069 30.4962 33.2062 30.4962C33.5051 30.4962 33.7482 30.7393 33.7482 31.0381C33.7482 31.337 33.5051 31.5801 33.2062 31.5801ZM33.2062 26.1602C33.5051 26.1602 33.7482 26.4033 33.7482 26.7022C33.7482 27.0011 33.5051 27.2442 33.2062 27.2442H3.79402C3.49513 27.2442 3.25203 27.0011 3.25203 26.7022C3.25203 26.4033 3.49513 26.1602 3.79402 26.1602H33.2062ZM9.65275 25.0762C9.79222 24.9902 9.92946 24.9003 10.0631 24.8047C10.1968 24.9003 10.334 24.9902 10.4734 25.0762H9.65275ZM18.0897 25.0762C18.2292 24.9902 18.3664 24.9003 18.5001 24.8047C18.6338 24.9003 18.771 24.9902 18.9105 25.0762H18.0897ZM26.5267 25.0762C26.6662 24.9902 26.8034 24.9003 26.9371 24.8047C27.0708 24.9003 27.2081 24.9902 27.3475 25.0762H26.5267ZM35.7807 22.9864C34.6092 24.3145 32.9234 25.0762 31.1556 25.0762C29.7502 25.0762 28.3731 24.5884 27.278 23.7026C27.1786 23.6222 27.0579 23.582 26.9371 23.582C26.8164 23.582 26.6957 23.6222 26.5963 23.7026C25.5012 24.5884 24.1241 25.0762 22.7186 25.0762C21.3131 25.0762 19.936 24.5884 18.841 23.7026C18.6422 23.5417 18.358 23.5417 18.1592 23.7026C17.0643 24.5884 15.6872 25.0762 14.2816 25.0762C12.876 25.0762 11.4989 24.5884 10.404 23.7026C10.2052 23.5417 9.921 23.5418 9.7222 23.7026C8.6273 24.5884 7.25013 25.0762 5.84456 25.0762C4.07694 25.0762 2.3912 24.3145 1.21962 22.9864C1.1238 22.8779 1.0761 22.7385 1.08514 22.594C1.09417 22.4496 1.15892 22.3173 1.26761 22.2214C1.37608 22.1256 1.51534 22.0777 1.65987 22.0869C1.8044 22.096 1.93672 22.1607 2.03254 22.2693C2.99845 23.3642 4.3879 23.9922 5.84456 23.9922C7.30137 23.9922 8.69082 23.3643 9.65658 22.2693C9.75942 22.1528 9.90756 22.0859 10.0631 22.0859C10.2186 22.0859 10.3667 22.1527 10.4696 22.2693C11.4354 23.3642 12.8249 23.9922 14.2816 23.9922C15.7383 23.9922 17.1278 23.3643 18.0936 22.2693C18.1964 22.1528 18.3446 22.0859 18.5 22.0859C18.6555 22.0859 18.8037 22.1527 18.9065 22.2693C19.8724 23.3642 21.2619 23.9922 22.7185 23.9922C24.1752 23.9922 25.5647 23.3643 26.5306 22.2693C26.6334 22.1528 26.7815 22.0859 26.9371 22.0859C27.0926 22.0859 27.2407 22.1527 27.3436 22.2693C28.3095 23.3642 29.6989 23.9922 31.1556 23.9922C32.6124 23.9922 34.0018 23.3643 34.9676 22.2694C35.1654 22.0453 35.5085 22.0237 35.7327 22.2214C35.8412 22.3172 35.906 22.4495 35.9151 22.594C35.9242 22.7385 35.8764 22.8779 35.7807 22.9864Z" fill="black"/>
</svg>
