<svg width="37" height="37" viewBox="0 0 37 37" fill="none" xmlns="http://www.w3.org/2000/svg">
<path d="M18.5 37C28.7173 37 37 28.7173 37 18.5C37 8.28273 28.7173 0 18.5 0C8.28273 0 0 8.28273 0 18.5C0 28.7173 8.28273 37 18.5 37Z" fill="#FFE157"/>
<path d="M18.5 34.1094C14.3306 34.1094 10.4107 32.4857 7.46251 29.5375C4.51429 26.5893 2.89062 22.6694 2.89062 18.5C2.89062 14.3306 4.51429 10.4107 7.46251 7.46251C10.4107 4.51429 14.3306 2.89062 18.5 2.89062C22.6694 2.89062 26.5893 4.51429 29.5375 7.46251C32.4857 10.4107 34.1094 14.3306 34.1094 18.5C34.1094 22.6694 32.4857 26.5893 29.5375 29.5375C26.5893 32.4857 22.6694 34.1094 18.5 34.1094ZM18.5 3.97461C10.4907 3.97461 3.97461 10.4907 3.97461 18.5C3.97461 26.5093 10.4907 33.0254 18.5 33.0254C26.5093 33.0254 33.0254 26.5093 33.0254 18.5C33.0254 10.4907 26.5093 3.97461 18.5 3.97461Z" fill="#0A181E"/>
<path d="M18.5001 5.16565C11.1356 5.16565 5.16553 11.1357 5.16553 18.5002C5.16553 25.8646 11.1356 31.8347 18.5001 31.8347C25.8645 31.8347 31.8346 25.8646 31.8346 18.5002C31.8346 11.1357 25.8645 5.16565 18.5001 5.16565ZM18.5001 29.1476C12.629 29.1476 7.85258 24.3713 7.85258 18.5002C7.85258 12.6291 12.629 7.8527 18.5001 7.8527C24.3711 7.8527 29.1475 12.6291 29.1475 18.5002C29.1475 24.3713 24.3711 29.1476 18.5001 29.1476Z" fill="#0A181E"/>
<path d="M19.1206 10.6759H17.8789C17.4798 10.6759 17.1562 10.3524 17.1562 9.95329V2.5293C17.1562 2.13017 17.4798 1.80664 17.8789 1.80664H19.1206C19.5198 1.80664 19.8433 2.13017 19.8433 2.5293V9.95329C19.8433 10.3524 19.5197 10.6759 19.1206 10.6759Z" fill="#132F3B"/>
<path d="M18.4997 9.95329V2.5293C18.4997 2.14737 18.7962 1.8354 19.1715 1.80924C19.1546 1.80809 19.1378 1.80664 19.1206 1.80664H17.8789C17.4798 1.80664 17.1562 2.13017 17.1562 2.5293V9.95329C17.1562 10.3524 17.4798 10.6759 17.8789 10.6759H19.1206C19.1378 10.6759 19.1547 10.6746 19.1715 10.6733C18.7962 10.6471 18.4997 10.3352 18.4997 9.95329Z" fill="#0A181E"/>
<path d="M19.1206 35.1927H17.8789C17.4798 35.1927 17.1562 34.8692 17.1562 34.4701V27.0461C17.1562 26.647 17.4798 26.3234 17.8789 26.3234H19.1206C19.5198 26.3234 19.8433 26.647 19.8433 27.0461V34.4701C19.8433 34.8692 19.5197 35.1927 19.1206 35.1927Z" fill="#132F3B"/>
<path d="M18.4997 34.4701V27.0461C18.4997 26.6642 18.7962 26.3522 19.1715 26.326C19.1546 26.3249 19.1378 26.3234 19.1206 26.3234H17.8789C17.4798 26.3234 17.1562 26.647 17.1562 27.0461V34.4701C17.1562 34.8692 17.4798 35.1927 17.8789 35.1927H19.1206C19.1378 35.1927 19.1547 35.1914 19.1715 35.1901C18.7962 35.164 18.4997 34.852 18.4997 34.4701Z" fill="#0A181E"/>
<path d="M26.3232 19.1208V17.8791C26.3232 17.4799 26.6468 17.1564 27.0459 17.1564H34.4699C34.869 17.1564 35.1925 17.4799 35.1925 17.8791V19.1208C35.1925 19.5199 34.869 19.8435 34.4699 19.8435H27.0459C26.6468 19.8435 26.3232 19.5199 26.3232 19.1208Z" fill="#132F3B"/>
<path d="M27.7686 19.1208V17.8791C27.7686 17.4799 28.0921 17.1564 28.4912 17.1564H27.0459C26.6468 17.1564 26.3232 17.4799 26.3232 17.8791V19.1208C26.3232 19.5199 26.6468 19.8435 27.0459 19.8435H28.4912C28.0921 19.8435 27.7686 19.5199 27.7686 19.1208Z" fill="#0A181E"/>
<path d="M1.80664 19.1208V17.8791C1.80664 17.4799 2.13017 17.1564 2.5293 17.1564H9.95329C10.3524 17.1564 10.6759 17.4799 10.6759 17.8791V19.1208C10.6759 19.5199 10.3524 19.8435 9.95329 19.8435H2.5293C2.13017 19.8435 1.80664 19.5199 1.80664 19.1208Z" fill="#132F3B"/>
<path d="M3.25195 19.1208V17.8791C3.25195 17.4799 3.57549 17.1564 3.97461 17.1564H2.5293C2.13017 17.1564 1.80664 17.4799 1.80664 17.8791V19.1208C1.80664 19.5199 2.13017 19.8435 2.5293 19.8435H3.97461C3.57549 19.8435 3.25195 19.5199 3.25195 19.1208Z" fill="#0A181E"/>
<path d="M18.4989 22.9203C16.0615 22.9203 14.0786 20.9374 14.0786 18.5C14.0786 16.0626 16.0615 14.0797 18.4989 14.0797C20.9363 14.0797 22.9192 16.0626 22.9192 18.5C22.9192 20.9374 20.9363 22.9203 18.4989 22.9203ZM18.4989 15.1637C16.6592 15.1637 15.1626 16.6603 15.1626 18.5C15.1626 20.3397 16.6592 21.8363 18.4989 21.8363C20.3386 21.8363 21.8352 20.3397 21.8352 18.5C21.8352 16.6603 20.3386 15.1637 18.4989 15.1637Z" fill="#0A181E"/>
<path d="M18.5015 24.8881C18.2021 24.8881 17.9595 24.6455 17.9595 24.3461V12.6545C17.9595 12.3551 18.2021 12.1125 18.5015 12.1125C18.8009 12.1125 19.0435 12.3551 19.0435 12.6545V24.346C19.0435 24.6454 18.8009 24.8881 18.5015 24.8881Z" fill="#132F3B"/>
<path d="M24.3449 19.042H12.6533C12.3539 19.042 12.1113 18.7994 12.1113 18.5C12.1113 18.2006 12.3539 17.958 12.6533 17.958H24.3448C24.6442 17.958 24.8868 18.2006 24.8868 18.5C24.8868 18.7994 24.6442 19.042 24.3449 19.042Z" fill="#132F3B"/>
</svg>
