<svg width="37" height="37" viewBox="0 0 37 37" fill="none" xmlns="http://www.w3.org/2000/svg">
<path d="M12.1207 25.5172H25.5173V33.8103H12.1207V25.5172Z" fill="#662B24"/>
<path d="M17.5359 36.9561C17.4397 36.9477 17.3447 36.9362 17.2472 36.9259C17.3434 36.9362 17.4391 36.9477 17.5359 36.9561Z" fill="#FFB531"/>
<path d="M16.5538 36.8302C16.4566 36.8143 16.3591 36.7991 16.2622 36.7804C16.3591 36.7991 16.4584 36.8143 16.5538 36.8302Z" fill="#FFB531"/>
<path d="M16.2634 36.7804C15.9544 36.7205 15.6482 36.653 15.3461 36.5673C15.6482 36.6517 15.9544 36.7205 16.2634 36.7804Z" fill="#FFA912"/>
<path d="M17.2483 36.9258C17.0159 36.9009 16.7848 36.8688 16.5549 36.8302C16.7845 36.8694 17.0156 36.9012 17.2483 36.9258Z" fill="#FFA912"/>
<path d="M18.5012 36.9999C18.1785 36.9999 17.857 36.9822 17.5371 36.956C17.857 36.9822 18.1785 36.9999 18.5012 36.9999Z" fill="#FFA912"/>
<path d="M21.1199 31.362C18.367 32.5264 15.1761 31.7486 13.2676 29.4482L12.2886 28.069H10.8448L8.29309 31.8966L10.6969 34.0331C12.0328 35.2208 13.6227 36.0877 15.3449 36.5673C17.7449 35.4457 19.7559 33.6331 21.1199 31.362Z" fill="#FFB531"/>
<path d="M25.0024 28.069L23.7312 29.4464C23.5587 29.652 23.3743 29.847 23.1786 30.0307C23.1469 30.0613 23.1117 30.0874 23.0793 30.1167C22.9098 30.2715 22.7326 30.4179 22.5485 30.555C22.5286 30.5696 22.5077 30.5824 22.4846 30.597C22.2809 30.7444 22.0691 30.8802 21.8504 31.0041L21.8395 31.0097C21.6062 31.1415 21.3651 31.2589 21.1175 31.362C19.7532 33.6334 17.7422 35.446 15.3416 36.5673C15.644 36.6518 15.9502 36.7206 16.2589 36.7804C16.3561 36.7991 16.4505 36.8144 16.5504 36.8302C16.7803 36.8695 17.0114 36.9013 17.2438 36.9259C17.3404 36.9361 17.4354 36.9477 17.5329 36.9561C17.8518 36.9822 18.1708 37 18.4969 37C21.3736 37 24.1502 35.9444 26.3001 34.0331L28.707 31.8966L26.7932 28.069H25.0024Z" fill="#FFA912"/>
<path d="M7.65515 15.3103H29.3448V28.069H7.65515V15.3103Z" fill="#662B24"/>
<path d="M7.65515 22.3276H29.3448V23.6034H7.65515V22.3276Z" fill="#57221D"/>
<path d="M7.65515 19.7758H29.3448V21.0517H7.65515V19.7758Z" fill="#57221D"/>
<path d="M7.65515 24.8793H29.3448V26.1552H7.65515V24.8793Z" fill="#57221D"/>
<path d="M12.1207 15.3103H24.8793V19.7759H12.1207V15.3103Z" fill="#662B24"/>
<path d="M20.4138 7.01723H16.5862V5.74137C16.5862 4.68448 17.4431 3.82758 18.5 3.82758C19.5569 3.82758 20.4138 4.68448 20.4138 5.74137V7.01723Z" fill="#FFB531"/>
<path d="M27.431 14.0345H9.56897L9.96394 12.5674C10.943 8.93103 14.4625 6.3793 18.5 6.3793C22.5375 6.3793 26.0571 8.93103 27.0361 12.5674L27.431 14.0345Z" fill="#E04343"/>
<path d="M24.3339 18.5713C23.7368 19.2971 22.8587 19.7341 21.9199 19.7734C20.9807 19.8123 20.0696 19.4497 19.4143 18.7763C18.9093 18.2711 18.0907 18.2711 17.5858 18.7763C16.9457 19.4161 16.0779 19.7759 15.1727 19.7759C14.1968 19.7799 13.2729 19.336 12.6661 18.5713L11.632 17.3945L11.4828 17.4117V24.2414L13.4642 28.2035C13.8137 28.9028 14.5285 29.3448 15.3104 29.3448H21.6897C22.4715 29.3448 23.1864 28.9028 23.5359 28.2035L25.5173 24.2414V17.4117L25.3681 17.3945L24.3339 18.5713Z" fill="#E94F4F"/>
<path d="M25.3681 17.3945L24.3339 18.5713C23.4175 19.6996 21.866 20.0864 20.5275 19.5208C20.0893 23.0443 18.8162 26.4122 16.8146 29.3448H21.6897C22.4715 29.3448 23.1864 28.9028 23.5359 28.2035L25.5173 24.2414V17.4117L25.3681 17.3945Z" fill="#CF3A3A"/>
<path d="M18.5 22.3276C18.4314 22.3273 18.3632 22.316 18.2984 22.2946L16.3846 21.6566L16.7877 20.4443L18.5 21.0171L20.2122 20.4468L20.6153 21.6591L18.7015 22.297C18.6364 22.3179 18.5685 22.3282 18.5 22.3276Z" fill="#662B24"/>
<path d="M20.8605 26.1393C19.2946 25.8988 17.7014 25.8988 16.1358 26.1393C15.7848 26.2081 15.4213 26.1212 15.1397 25.9007C14.8578 25.6801 14.6858 25.3481 14.6687 24.9908C14.6865 24.4008 15.1334 23.9124 15.72 23.8427L16.1339 23.7788C17.6995 23.5383 19.2928 23.5383 20.8583 23.7788L21.2726 23.8427C21.8613 23.9109 22.3105 24.4012 22.3276 24.9936C22.3095 25.3503 22.1373 25.6817 21.8557 25.9016C21.5741 26.1215 21.2109 26.2081 20.8605 26.1393Z" fill="#662B24"/>
<path d="M13.3965 22.9655C13.2274 22.9655 13.0651 22.8983 12.9455 22.7786L11.0317 20.8648C10.79 20.6144 10.7934 20.2166 11.0395 19.9706C11.2856 19.7245 11.6834 19.7211 11.9338 19.9628L13.8476 21.8766C14.0298 22.0591 14.0846 22.3335 13.9859 22.5718C13.8871 22.8101 13.6545 22.9655 13.3965 22.9655Z" fill="#CF3A3A"/>
<path d="M23.6034 22.9655C23.3455 22.9655 23.1128 22.8101 23.0141 22.5718C22.9154 22.3335 22.9702 22.0591 23.1524 21.8766L25.0662 19.9628C25.3166 19.7211 25.7144 19.7245 25.9605 19.9706C26.2066 20.2166 26.21 20.6144 25.9683 20.8648L24.0545 22.7786C23.9349 22.8983 23.7726 22.9655 23.6034 22.9655Z" fill="#BA2727"/>
<path d="M5.47724 8.51177L5.10345 7.01724L0 12.1207C1.23007 15.401 3.65533 18.0951 6.78892 19.6615L8.63325 20.5842L9.56897 14.0345C7.52684 12.8091 6.05474 10.8224 5.47724 8.51177Z" fill="#E94F4F"/>
<path d="M5.47724 8.51177L5.10345 7.01724L0 12.1207C1.23007 15.401 3.65533 18.0951 6.78892 19.6615L8.63325 20.5842L9.56897 14.0345C7.52684 12.8091 6.05474 10.8224 5.47724 8.51177Z" fill="#E04343"/>
<path d="M8.6333 20.5842L6.78897 19.6616C6.26972 19.3971 5.76791 19.0999 5.28603 18.7722L4.8758 19.9531C4.1818 21.9473 3.82764 24.0439 3.82764 26.1552L7.65522 28.069L8.6333 20.5842Z" fill="#CF3A3A"/>
<path d="M31.5228 8.51177L31.8965 7.01724L37 12.1207C35.7699 15.401 33.3447 18.0951 30.2111 19.6615L28.3667 20.5842L27.431 14.0345C29.4732 12.8091 30.9453 10.8224 31.5228 8.51177Z" fill="#E94F4F"/>
<path d="M28.3667 20.5842L30.211 19.6616C30.7303 19.3971 31.2321 19.0999 31.714 18.7722L32.1242 19.9531C32.8182 21.9473 33.1724 24.0439 33.1724 26.1552L29.3448 28.069L28.3667 20.5842Z" fill="#CF3A3A"/>
<path d="M28.7069 31.8965L32.5479 32.1918C35.06 32.3853 37 34.4804 37 37H18.5C21.3766 37 24.1532 35.9444 26.3031 34.0331L28.7069 31.8965Z" fill="#E94F4F"/>
<path d="M34.2474 32.646C32.8718 34.6218 28.7891 36.0278 26.7931 37H37C36.9997 35.1392 35.9282 33.4447 34.2474 32.646Z" fill="#CF3A3A"/>
<path d="M31.1278 32.0828L29.2906 37H30.6519L32.4516 32.185L31.1278 32.0828Z" fill="#BA2727"/>
<path d="M35.0332 33.1157C34.6828 32.8569 34.299 32.6469 33.8919 32.4918L32.4802 37H33.8165L35.0332 33.1157Z" fill="#BA2727"/>
<path d="M28.7069 31.8965L27.7123 32.7809L26.2025 37H27.5575L29.3654 31.947L28.7069 31.8965Z" fill="#BA2727"/>
<path d="M25.8241 17.4481L20.3858 16.8102C19.133 16.6628 17.8671 16.6628 16.6143 16.8102L11.176 17.4481C10.4773 17.5303 9.79014 17.2226 9.38582 16.6473C8.98182 16.0716 8.92606 15.3206 9.24036 14.6914L9.56898 14.0345H27.431L27.7597 14.6914C28.074 15.3206 28.0182 16.0716 27.6142 16.6473C27.2099 17.2226 26.5227 17.5303 25.8241 17.4481Z" fill="#FFB531"/>
<path d="M27.7597 14.6914L27.4311 14.0345H21.6312C20.6185 15.0203 19.5196 15.9131 18.3468 16.7018C19.029 16.694 19.7108 16.7295 20.3883 16.8083L25.8266 17.4462C26.5243 17.5269 27.2099 17.2192 27.6133 16.6445C28.0167 16.0694 28.0728 15.32 27.7597 14.6914Z" fill="#FFA912"/>
<path d="M25.3219 32.0644L27.5546 29.799L26.9532 28.5913L24.4167 31.1649L24.3989 31.1808L23.1231 29.7946C22.8181 30.094 22.4858 30.3634 22.1297 30.5995L23.4227 32.0031C22.1238 32.9628 20.5791 33.5337 18.9681 33.6496V31.7262C18.7569 31.7461 18.5445 31.7607 18.3302 31.7607C18.1159 31.7607 17.9035 31.7449 17.6923 31.7243V33.6484C16.0815 33.5278 14.5384 32.9525 13.2414 31.9897L14.5372 30.5861C14.1818 30.3488 13.85 30.0781 13.5457 29.7781L12.2698 31.1624C12.2642 31.1565 12.2577 31.1521 12.2527 31.1465L10.0237 28.9137L9.30042 29.998L11.3494 32.0523C11.7254 32.4258 12.1306 32.7684 12.5614 33.0774L11.3958 34.5937C11.7419 34.8442 12.101 35.0759 12.472 35.2877L13.6401 33.7683C14.8895 34.4458 16.2709 34.8432 17.6891 34.9339V36.8393C17.9016 36.8508 18.1134 36.8686 18.3271 36.8692C18.5408 36.8698 18.7526 36.852 18.965 36.8405V34.9358C20.3876 34.8485 21.774 34.4523 23.0281 33.7745L24.1762 35.3058C24.5478 35.0952 24.9079 34.8651 25.2543 34.6156L24.1061 33.0843C24.5379 32.7774 24.9444 32.4361 25.3219 32.0644Z" fill="#F7A116"/>
<path d="M8.2931 31.8965L4.45212 32.1918C1.93996 32.3853 0 34.4804 0 37H18.5C15.6234 37 12.8468 35.9444 10.6969 34.0331L8.2931 31.8965Z" fill="#E94F4F"/>
<path d="M10.6968 34.033L10.633 33.9776C8.97927 35.4902 6.95179 36.5337 4.75952 37H18.5C15.6234 37 12.8467 35.9443 10.6968 34.033Z" fill="#CF3A3A"/>
<path d="M5.87217 32.0828L7.70934 37H6.34813L4.54834 32.185L5.87217 32.0828Z" fill="#BA2727"/>
<path d="M1.9668 33.1157C2.31722 32.8569 2.70098 32.6469 3.1081 32.4918L4.51977 37H3.18348L1.9668 33.1157Z" fill="#BA2727"/>
<path d="M8.29313 31.8965L9.28772 32.7809L10.7975 37H9.44253L7.63464 31.947L8.29313 31.8965Z" fill="#BA2727"/>
<path d="M27.0361 12.5674C26.1708 9.59265 23.7558 7.32407 20.7328 6.64658C18.738 11.095 14.175 13.1414 11.1638 14.0345H27.4311L27.0361 12.5674Z" fill="#CF3A3A"/>
<path d="M21.6897 3.18966C22.3942 3.18966 22.9655 3.76093 22.9655 4.46552V5.10345C22.9655 7.56982 20.9664 9.56897 18.5 9.56897C16.0336 9.56897 14.0345 7.56982 14.0345 5.10345V4.46552C14.0345 3.76093 14.6058 3.18966 15.3103 3.18966C15.3103 1.42818 13.8822 0 12.1207 0H8.93103C10.1564 1.2254 10.8448 2.88751 10.8448 4.62064V5.74138C10.8448 9.96923 14.2721 13.3966 18.5 13.3966C22.7278 13.3966 26.1552 9.96923 26.1552 5.74138V4.62064C26.1552 2.88751 26.8436 1.2254 28.069 0H24.8793C23.1178 0 21.6897 1.42818 21.6897 3.18966Z" fill="#FFB531"/>
<path d="M7.51097 12.3356C6.82818 14.4656 5.23429 16.1816 3.16101 17.0201C4.21883 18.0917 5.44423 18.9838 6.78893 19.6616L8.63326 20.5842L9.56898 14.0345C8.80209 13.5741 8.1084 13.0016 7.51097 12.3356Z" fill="#CF3A3A"/>
<path d="M37 12.1207L31.8966 7.01724L31.5228 8.51177C31.3892 9.03975 31.2072 9.55433 30.9799 10.0493C32.1507 12.4521 32.8703 15.0493 33.1023 17.7122C34.8464 16.2015 36.1861 14.2796 37 12.1207Z" fill="#CF3A3A"/>
<path d="M32.2971 20.5253C32.238 20.3341 32.19 20.1428 32.1243 19.9512L31.714 18.7704C31.2322 19.0981 30.7303 19.3952 30.2111 19.6597L28.3879 20.5727C29.6831 20.7957 31.0079 20.7798 32.2971 20.5253Z" fill="#BA2727"/>
<path d="M24.8793 0C23.1178 0 21.6897 1.42818 21.6897 3.18966H21.7133C21.7971 2.871 21.8597 2.54705 21.9002 2.21999C21.8597 2.54705 21.7971 2.871 21.7133 3.18966C22.4086 3.20243 22.9655 3.76996 22.9655 4.46552V5.10345C22.9724 6.38523 22.4251 7.60783 21.4641 8.45632C20.5032 9.30513 19.2227 9.69699 17.9515 9.5319C16.8709 10.5685 15.6536 11.4522 14.3329 12.1578C16.6856 13.6894 19.6877 13.8093 22.155 12.4702C24.622 11.1314 26.1577 8.54852 26.1552 5.74138V4.62064C26.1552 2.88751 26.8436 1.2254 28.069 0H24.8793Z" fill="#FFA912"/>
</svg>
