<svg width="29" height="37" viewBox="0 0 29 37" fill="none" xmlns="http://www.w3.org/2000/svg">
<path d="M28.4389 14.2193C28.4389 6.36631 22.0728 0.000148896 14.2198 2.65512e-09C6.43981 -0.000148891 0.0965809 6.26193 0.0013636 14.0414C-0.0334774 16.8886 0.769356 19.5457 2.17796 21.7832C2.39296 22.1247 2.45527 22.5384 2.3611 22.9307C2.25367 23.3781 2.1965 23.845 2.1965 24.3254C2.1965 27.0623 4.03675 29.3692 6.54731 30.0765C6.63486 30.1012 6.7513 30.1236 6.8853 30.1438C7.97661 30.3076 8.78503 31.2439 8.78503 32.3474V34.3199L8.82225 36.245C8.82225 36.6619 9.16032 37 9.57729 37H10.7473C11.1643 37 11.5023 36.6619 11.5023 36.245C11.5023 36.6619 11.8404 37 12.2574 37H13.4274C13.8444 37 14.1824 36.6619 14.1824 36.245C14.1824 36.6619 14.5205 37 14.9375 37H16.1075C16.5244 37 16.8625 36.6619 16.8625 36.245C16.8625 36.6619 17.2006 37 17.6175 37H18.7875C19.2045 37 19.5426 36.6619 19.5426 36.245L19.5798 34.3199V32.3422C19.5798 31.2401 20.3867 30.3109 21.4753 30.139C21.595 30.1201 21.6995 30.0992 21.7802 30.0765C24.2909 29.3693 26.1311 27.0623 26.1311 24.3254C26.1311 23.8845 26.0826 23.4551 25.9915 23.0415C25.9049 22.6486 25.9708 22.2377 26.1884 21.8992C27.6126 19.6843 28.4389 17.0483 28.4389 14.2193Z" fill="#E3E0E4"/>
<path d="M10.274 33.5754L10.2963 37H9.57713C9.16023 37 8.82224 36.662 8.82224 36.2451L8.78502 34.3199V32.347C8.78502 31.2437 7.97653 30.3079 6.88514 30.1434C6.75113 30.1233 6.635 30.101 6.54715 30.0764C4.03681 29.3692 2.19649 27.0621 2.19649 24.3254C2.19649 23.8452 2.25381 23.3777 2.36101 22.9303C2.45556 22.538 2.39302 22.1248 2.17787 21.7831C0.769343 19.5459 -0.0331924 16.8889 0.00105311 14.0414C0.0717775 8.24568 3.61023 3.29274 8.62719 1.14346C4.41276 3.56894 1.55401 8.09306 1.48999 13.2969C1.45574 16.1445 2.25828 18.8015 3.66681 21.0386C3.88196 21.3803 3.94449 21.7935 3.84995 22.1858C3.74274 22.6332 3.68542 23.1008 3.68542 23.5809C3.68542 26.3176 5.52574 28.6247 8.03608 29.332C8.12393 29.3565 8.24007 29.3789 8.37407 29.399C9.46546 29.5635 10.274 30.4993 10.274 31.6026V33.5754Z" fill="#D4CFD5"/>
<path d="M14.2179 24.5674C14.9279 24.5674 15.5568 25.0253 15.7748 25.701L16.49 27.9182C16.6916 28.5431 16.2255 29.1831 15.5689 29.1831H12.8669C12.2103 29.1831 11.7443 28.5431 11.9459 27.9182L12.6611 25.701C12.8791 25.0253 13.508 24.5674 14.2179 24.5674Z" fill="#9B9696"/>
<path d="M16.511 28.4391C16.412 28.8552 16.0398 29.1836 15.5693 29.1836H12.8669C12.2102 29.1836 11.7442 28.5433 11.9459 27.9187L12.6614 25.7017C12.8326 25.1709 13.2577 24.7741 13.7766 24.6289C13.7163 24.7309 13.6672 24.8411 13.6292 24.9572L12.9138 27.1742C12.712 27.7988 13.178 28.4391 13.8347 28.4391H16.511Z" fill="#736E6E"/>
<path d="M8.82134 23.7857H7.00343C5.80819 23.7857 4.83926 22.8168 4.83926 21.6215V19.9335C4.83926 18.0211 6.38954 16.4709 8.30193 16.4709H10.1198C11.3151 16.4709 12.284 17.4398 12.284 18.635V20.323C12.284 22.2354 10.7337 23.7857 8.82134 23.7857Z" fill="#9B9696"/>
<path d="M12.2839 18.8343V20.3232C12.2839 22.2358 10.734 23.7857 8.82142 23.7857H7.00343C5.80782 23.7857 4.83926 22.8172 4.83926 21.6216V20.1326C4.83926 21.3283 5.80782 22.2968 7.00343 22.2968H8.82142C10.734 22.2968 12.2839 20.7468 12.2839 18.8343Z" fill="#736E6E"/>
<path d="M21.5037 23.7854H19.6628C17.7262 23.7854 16.1562 22.2155 16.1562 20.2789V18.5695C16.1562 17.3591 17.1375 16.3779 18.3478 16.3779H20.1887C22.1253 16.3779 23.6952 17.9479 23.6952 19.8844V21.5939C23.6952 22.8042 22.7141 23.7854 21.5037 23.7854Z" fill="#9B9696"/>
<path d="M23.6945 20.1051V21.594C23.6945 22.8045 22.7133 23.7857 21.5028 23.7857H19.6618C17.7254 23.7857 16.1553 22.2156 16.1553 20.2793V18.7903C16.1553 20.7267 17.7254 22.2968 19.6618 22.2968H21.5028C22.7133 22.2968 23.6945 21.3156 23.6945 20.1051Z" fill="#736E6E"/>
<path d="M11.4998 36.8039C11.1913 36.8039 10.9414 36.554 10.9414 36.2456V34.9519C10.9414 34.6435 11.1913 34.3936 11.4998 34.3936C11.8082 34.3936 12.0581 34.6435 12.0581 34.9519V36.2456C12.0581 36.554 11.8082 36.8039 11.4998 36.8039Z" fill="#9B9696"/>
<path d="M14.1824 36.8033C13.874 36.8033 13.6241 36.5534 13.6241 36.245V34.9513C13.6241 34.6429 13.874 34.3929 14.1824 34.3929C14.4908 34.3929 14.7408 34.6429 14.7408 34.9513V36.245C14.7408 36.5534 14.4908 36.8033 14.1824 36.8033Z" fill="#9B9696"/>
<path d="M16.8624 36.8036C16.5539 36.8036 16.304 36.5537 16.304 36.2453V34.9516C16.304 34.6432 16.5539 34.3933 16.8624 34.3933C17.1708 34.3933 17.4207 34.6432 17.4207 34.9516V36.2453C17.4207 36.5537 17.1707 36.8036 16.8624 36.8036Z" fill="#9B9696"/>
</svg>
