<svg width="16" height="15" viewBox="0 0 16 15" fill="none" xmlns="http://www.w3.org/2000/svg">
<path d="M0.777344 14.3771L1.08907 14.6886L12.3395 3.67082L13.1551 2.61371L12.8425 2.30139L0.777344 14.3771Z" fill="#005457"/>
<path d="M1.08887 14.6886L1.4006 15L13.4658 2.92426L13.1549 2.61371L1.08887 14.6886Z" fill="#04303E"/>
<path d="M12.8877 2.88136L13.7647 3.67082L15.3536 1.9497C15.6195 1.66177 15.767 1.28393 15.767 0.891997V0L13.9316 1.35703L12.8877 2.88136Z" fill="#989EEC"/>
<path d="M12.0962 2.16917L12.8877 2.88136L15.767 0H14.7813C14.3462 0 13.9307 0.181866 13.6354 0.501822L12.0962 2.16917Z" fill="#ADCFFF"/>
<path d="M0.779694 10.1066L0.785746 10.4502L1.32253 10.4419C1.9729 10.4318 2.59501 10.1742 3.0621 9.72151C3.57021 9.22906 3.8515 8.54807 3.83904 7.84059L3.83299 7.49701L3.29621 7.50532C2.64584 7.5154 2.02373 7.77301 1.55664 8.22571C1.04853 8.71816 0.767236 9.39917 0.779694 10.1066Z" fill="#F6EBD8"/>
<path d="M0.782624 4.91326L0.788676 4.57004L1.3249 4.57835C1.97463 4.58843 2.59606 4.84578 3.06268 5.298C3.57026 5.78992 3.85129 6.47023 3.83883 7.17698L3.83278 7.52021L3.29655 7.51189C2.64683 7.50182 2.0254 7.24447 1.55877 6.79224C1.05116 6.30029 0.770166 5.61999 0.782624 4.91326Z" fill="#F6EBD8"/>
<path d="M10.8538 14.9571L11.1973 14.9511L11.189 14.4143C11.1789 13.7639 10.9213 13.1418 10.4686 12.6747C9.97619 12.1666 9.2952 11.8853 8.58772 11.8978L8.24414 11.9038L8.25246 12.4406C8.26253 13.091 8.52014 13.7131 8.97284 14.1802C9.46529 14.6883 10.1463 14.9696 10.8538 14.9571Z" fill="#ECD6AF"/>
<path d="M5.66012 14.9541L5.31689 14.948L5.32521 14.4118C5.33529 13.7621 5.59263 13.1406 6.04486 12.674C6.53678 12.1664 7.21709 11.8854 7.92384 11.8979L8.26707 11.9039L8.25875 12.4401C8.24867 13.0899 7.99133 13.7113 7.5391 14.1779C7.04718 14.6855 6.36687 14.9665 5.66012 14.9541Z" fill="#F6EBD8"/>
<path d="M15.7033 10.1066L15.6972 10.4502L15.1605 10.4419C14.5101 10.4318 13.888 10.1742 13.4209 9.72151C12.9128 9.22906 12.6315 8.54807 12.644 7.84059L12.65 7.49701L13.1868 7.50532C13.8372 7.5154 14.4593 7.77301 14.9264 8.22571C15.4345 8.71816 15.7158 9.39917 15.7033 10.1066Z" fill="#ECD6AF"/>
<path d="M15.7002 4.91326L15.6941 4.57004L15.1579 4.57835C14.5082 4.58843 13.8867 4.84578 13.4201 5.298C12.9125 5.78992 12.6315 6.47023 12.644 7.17698L12.65 7.52021L13.1862 7.51189C13.836 7.50182 14.4574 7.24447 14.924 6.79224C15.4316 6.30029 15.7126 5.61999 15.7002 4.91326Z" fill="#ECD6AF"/>
<path d="M15.7669 14.3771L15.4552 14.6886L4.22686 3.59111L3.38916 2.61371L3.70177 2.30139L15.7669 14.3771Z" fill="#04303E"/>
<path d="M15.4555 14.6886L15.1438 15L3.07861 2.92426L3.38946 2.61371L15.4555 14.6886Z" fill="#005457"/>
<path d="M3.65665 2.88136L2.77964 3.67082L1.19073 1.9497C0.924835 1.66177 0.777344 1.28393 0.777344 0.891997V0L2.52349 1.37099L3.65665 2.88136Z" fill="#ADCFFF"/>
<path d="M13.0316 7.4903C13.0316 8.13456 12.9054 8.75975 12.6561 9.34886C12.4155 9.91755 12.0715 10.4281 11.6333 10.8663C11.1951 11.3045 10.6845 11.6485 10.1158 11.8891C9.52673 12.1384 8.90157 12.2647 8.25728 12.2647L7.58496 7.56375L8.25728 2.71594C8.90154 2.71594 9.52673 2.84219 10.1158 3.09152C10.6845 3.33208 11.1951 3.6761 11.6333 4.11429C12.0715 4.55247 12.4155 5.06305 12.6561 5.63174C12.9054 6.22085 13.0316 6.84601 13.0316 7.4903Z" fill="#CB7400"/>
<path d="M8.25727 2.71594V12.2647C7.61301 12.2647 6.98782 12.1384 6.39871 11.8891C5.83001 11.6485 5.31944 11.3045 4.88125 10.8663C4.44307 10.4281 4.09905 9.91755 3.85848 9.34886C3.60916 8.75975 3.48291 8.13459 3.48291 7.4903C3.48291 6.84601 3.60916 6.22085 3.85848 5.63174C4.09905 5.06305 4.44307 4.55247 4.88125 4.11429C5.31944 3.6761 5.83001 3.33208 6.39871 3.09152C6.98782 2.84219 7.61301 2.71594 8.25727 2.71594Z" fill="#E99B62"/>
<path d="M10.022 8.2213L10.0228 9.25608L8.98805 9.2552L8.25706 9.98766L7.71387 7.56376L8.25706 4.99295L8.98805 5.72541L10.0228 5.72453L10.022 6.75932L10.7544 7.49031L10.022 8.2213Z" fill="#04303E"/>
<path d="M8.25712 4.99295V9.98766L7.52613 9.2552L6.49134 9.25608L6.49223 8.2213L5.75977 7.49031L6.49223 6.75932L6.49134 5.72453L7.52613 5.72541L8.25712 4.99295Z" fill="#005457"/>
<path d="M8.25734 5.6167L8.54183 4.99295L8.25734 4.3692L7.34389 5.28441L6.05026 5.28323L6.05144 6.57686L5.13623 7.49031L6.05144 8.40375L6.05026 9.69738L7.34389 9.69621L8.25734 10.6114L8.44408 9.98766L8.25734 9.36391L7.70909 8.81449L6.93256 8.81508L6.93315 8.03855L6.38373 7.49031L6.93315 6.94207L6.93256 6.16553L7.70909 6.16612L8.25734 5.6167Z" fill="#FFDE55"/>
<path d="M10.4632 8.40375L10.4644 9.69738L9.17077 9.69621L8.25732 10.6114V9.36391L8.80557 8.81449L9.5821 8.81508L9.58151 8.03855L10.1309 7.49031L9.58151 6.94207L9.5821 6.16553L8.80557 6.16612L8.25732 5.6167V4.3692L9.17077 5.28441L10.4644 5.28323L10.4632 6.57686L11.3784 7.49031L10.4632 8.40375Z" fill="#FFB555"/>
<path d="M8.69769 7.04959V7.93101H8.25698L8.03662 7.4903L8.25698 7.04959H8.69769Z" fill="#D00050"/>
<path d="M7.81641 7.04959H8.25712V7.93101H7.81641V7.04959Z" fill="#FF415B"/>
<path d="M4.44816 2.16917L3.65665 2.88136L0.777344 0H1.76306C2.19819 0 2.61363 0.181866 2.90891 0.501822L4.44816 2.16917Z" fill="#989EEC"/>
<path d="M8.25727 3.0832L8.69798 2.6137L8.25727 2.20178C7.54361 2.20178 6.85111 2.34163 6.19857 2.61781C5.56864 2.88429 5.00307 3.26536 4.5177 3.75073C4.03233 4.2361 3.65126 4.80168 3.38478 5.4316C3.1086 6.08414 2.96875 6.77664 2.96875 7.4903C2.96875 8.20396 3.1086 8.89646 3.38478 9.549C3.65126 10.1789 4.03233 10.7445 4.5177 11.2299C5.00307 11.7152 5.56864 12.0963 6.19857 12.3628C6.85111 12.639 7.54361 12.7788 8.25727 12.7788L8.54176 12.332L8.25727 11.8974C5.82337 11.8974 3.85017 9.92419 3.85017 7.4903C3.85017 5.05641 5.82337 3.0832 8.25727 3.0832Z" fill="#FFDE55"/>
<path d="M13.5458 7.4903C13.5458 8.20396 13.406 8.89646 13.1298 9.549C12.8633 10.1789 12.4823 10.7445 11.9969 11.2299C11.5115 11.7152 10.9459 12.0963 10.316 12.3628C9.66348 12.639 8.97098 12.7788 8.25732 12.7788V11.8974C10.6912 11.8974 12.6644 9.92419 12.6644 7.4903C12.6644 5.05641 10.6912 3.0832 8.25732 3.0832V2.20178C8.97098 2.20178 9.66348 2.34163 10.316 2.61781C10.9459 2.88429 11.5115 3.26536 11.9969 3.75073C12.4823 4.2361 12.8633 4.80168 13.1298 5.4316C13.406 6.08414 13.5458 6.77664 13.5458 7.4903Z" fill="#FFB555"/>
</svg>
