<svg width="38" height="37" viewBox="0 0 38 37" fill="none" xmlns="http://www.w3.org/2000/svg">
<path d="M30.241 27.2236C30.241 27.2236 34.2595 29.9906 34.1114 36.9999C34.1114 36.9999 29.9298 29.3665 21.3752 30.8842C21.3752 30.8845 23.2124 25.8843 30.241 27.2236Z" fill="#676C70"/>
<path d="M7.29651 27.2238C7.29651 27.2238 3.27781 29.9908 3.42613 37C3.42613 37 7.60769 29.3667 16.1623 30.8844C16.1623 30.8847 14.3248 25.8845 7.29651 27.2238Z" fill="#676C70"/>
<path d="M31.9671 24.4613C31.9671 24.4613 36.5888 27.2283 36.4184 34.2378C36.4184 34.2378 31.609 26.6042 21.7705 28.1222C21.7705 28.1222 23.8838 23.122 31.9671 24.4613Z" fill="#62686B"/>
<path d="M5.57704 24.4613C5.57704 24.4613 0.95506 27.2283 1.12571 34.2378C1.12571 34.2378 5.93489 26.6042 15.7736 28.1222C15.7736 28.1222 13.6604 23.122 5.57704 24.4613Z" fill="#62686B"/>
<path d="M33.5359 21.4111C36.0146 22.05 37.1223 23.8606 37.1223 23.8606C36.7529 17.2574 31.3738 14.3818 31.3738 14.3818L28.1569 3.465C26.153 4.90268 20.9847 7.03299 18.7696 7.03299C16.5547 7.03299 11.3864 4.90293 9.38235 3.465L6.16543 14.3818C6.16543 14.3818 0.786083 17.2574 0.416936 23.8606C0.416936 23.8606 1.52437 22.05 4.003 21.4111C4.003 21.4111 -0.743201 24.1269 0.10049 28.9198C2.36807 26.0441 8.80215 24.2335 11.861 25.7247C14.9195 27.2158 14.6033 29.985 14.9722 32.1683C15.182 33.4092 15.4347 34.7614 16.2689 35.4379C16.9023 35.9519 18.0408 35.9491 18.7693 35.9491C19.4979 35.9491 20.6364 35.9519 21.2701 35.4379C22.1042 34.7611 22.3567 33.4092 22.5665 32.1683C22.9359 29.985 22.6194 27.2158 25.678 25.7247C28.7368 24.2335 35.1706 26.0444 37.4385 28.9198C38.2824 24.1271 33.5359 21.4111 33.5359 21.4111Z" fill="#676C70"/>
<path d="M7.98775 0.0223966C8.43771 -0.20672 10.301 1.35142 11.6162 3.35073C12.7214 5.03084 13.4733 8.21614 13.3543 9.62195C13.1701 11.7939 9.24727 14.9953 6.57842 15.4874C4.94449 11.0586 6.18669 0.938863 7.98775 0.0223966Z" fill="#B8B8B8"/>
<path d="M8.4316 2.12866C8.75884 1.96203 10.1137 3.09506 11.0701 4.54856C11.8736 5.77043 12.4204 8.08644 12.3336 9.10856C12.1999 10.6878 9.34757 13.0156 7.40673 13.3734C6.21873 10.1533 7.12215 2.79518 8.4316 2.12866Z" fill="#787D82"/>
<path d="M29.5437 0.0223966C29.0935 -0.20672 27.2305 1.35142 25.9153 3.35073C24.8098 5.03084 24.058 8.21614 24.1772 9.62195C24.3611 11.7939 28.2842 14.9953 30.9531 15.4874C32.587 11.0586 31.3448 0.938863 29.5437 0.0223966Z" fill="#B8B8B8"/>
<path d="M29.1032 2.12866C28.7757 1.96203 27.4211 3.09506 26.4647 4.54856C25.6609 5.77043 25.1141 8.08644 25.2009 9.10856C25.3349 10.6878 28.1872 13.0156 30.1278 13.3734C31.3161 10.1533 30.4127 2.79518 29.1032 2.12866Z" fill="#787D82"/>
<path d="M25.3569 22.1038V24.588H18.772H18.7675H12.1826V22.1038C10.1253 20.9575 6.64136 21.817 6.64136 23.3458C6.64136 24.8746 11.2488 27.3441 13.8406 33.378C15.1312 36.3828 18.0046 36.5337 18.7364 36.5402V36.5404C18.7461 36.5404 18.7587 36.5404 18.77 36.5404C18.7815 36.5404 18.7938 36.5404 18.8039 36.5404V36.5402C19.5354 36.5337 22.4085 36.3828 23.6994 33.378C26.2912 27.3441 30.8986 24.8746 30.8986 23.3458C30.8983 21.817 27.4144 20.9575 25.3569 22.1038Z" fill="#B8B8B8"/>
<path d="M18.7694 33.352L16.1793 35.3929C16.1793 35.3929 16.5992 36.7242 18.7694 36.7242C20.9396 36.7242 21.3597 35.3929 21.3597 35.3929L18.7694 33.352Z" fill="#525759"/>
<path d="M11.8594 24.1849C14.918 25.9004 14.6018 29.0864 14.9707 31.5984C15.1805 33.0263 15.4332 34.5817 16.2673 35.3604C16.9007 35.9516 18.0393 35.9486 18.7678 35.9486C19.4963 35.9486 20.6348 35.9516 21.2685 35.3604C22.1026 34.5819 22.3551 33.0263 22.5649 31.5984C22.9343 29.0864 22.6178 25.9004 25.6764 24.1849C28.7352 22.4696 8.80032 22.4696 11.8594 24.1849Z" fill="#676C70"/>
<path d="M27.9017 25.9493C27.9017 25.9493 28.3536 20.8139 26.6585 18.8166C24.9631 16.8196 22.4202 17.9037 22.1941 19.4445C21.9682 20.9851 22.3266 24.143 23.4373 24.751C24.5477 25.3594 27.9017 25.9493 27.9017 25.9493Z" fill="#838C8F"/>
<path d="M9.63688 25.9489C9.63688 25.9489 9.18467 20.8135 10.8801 18.8162C12.5755 16.8192 15.1184 17.9033 15.3442 19.4441C15.5703 20.9847 15.2117 24.1426 14.101 24.7507C12.9906 25.359 9.63688 25.9489 9.63688 25.9489Z" fill="#838C8F"/>
<path d="M21.7688 22.2773C21.7688 22.2773 24.6898 21.7719 26.1526 19.6813C26.1526 19.6813 24.7571 18.148 23.0183 19.4406C21.8509 20.3086 21.7688 22.2773 21.7688 22.2773Z" fill="#263138"/>
<path d="M23.8544 21.0809C24.3288 21.0809 24.7134 20.6926 24.7134 20.2136C24.7134 19.7346 24.3288 19.3463 23.8544 19.3463C23.3799 19.3463 22.9954 19.7346 22.9954 20.2136C22.9954 20.6926 23.3799 21.0809 23.8544 21.0809Z" fill="#08AFC9"/>
<path d="M23.6389 20.4089C23.8174 20.4089 23.9621 20.2629 23.9621 20.0827C23.9621 19.9025 23.8174 19.7565 23.6389 19.7565C23.4604 19.7565 23.3157 19.9025 23.3157 20.0827C23.3157 20.2629 23.4604 20.4089 23.6389 20.4089Z" fill="white"/>
<path d="M15.7737 22.2773C15.7737 22.2773 12.8527 21.7719 11.3899 19.6813C11.3899 19.6813 12.7852 18.148 14.524 19.4406C15.6917 20.3086 15.7737 22.2773 15.7737 22.2773Z" fill="#263138"/>
<path d="M13.6903 21.0809C14.1647 21.0809 14.5493 20.6926 14.5493 20.2136C14.5493 19.7346 14.1647 19.3463 13.6903 19.3463C13.2159 19.3463 12.8313 19.7346 12.8313 20.2136C12.8313 20.6926 13.2159 21.0809 13.6903 21.0809Z" fill="#08AFC9"/>
<path d="M13.4748 20.408C13.6533 20.408 13.7981 20.2619 13.7981 20.0817C13.7981 19.9016 13.6533 19.7555 13.4748 19.7555C13.2963 19.7555 13.1516 19.9016 13.1516 20.0817C13.1516 20.2619 13.2963 20.408 13.4748 20.408Z" fill="white"/>
<path d="M18.7695 32.8231C17.6525 32.8231 16.78 33.0633 16.3549 33.6119C16.3549 33.6119 17.6467 35.5602 18.7695 35.5602C19.8922 35.5602 21.1844 33.6119 21.1844 33.6119C20.7593 33.0633 19.8865 32.8231 18.7695 32.8231Z" fill="#263138"/>
<path opacity="0.8" d="M18.7692 33.2339C19.7778 33.2339 20.6157 33.3541 21.1791 33.6194C21.1824 33.6146 21.1844 33.6116 21.1844 33.6116C20.7593 33.063 19.8865 32.8229 18.7695 32.8229C17.6525 32.8229 16.78 33.063 16.3549 33.6116C16.3549 33.6116 16.3569 33.6146 16.3601 33.6194C16.9228 33.3541 17.7609 33.2339 18.7692 33.2339Z" fill="#3C454A"/>
<path opacity="0.12" d="M18.7693 7.03305C17.3525 7.03305 14.7286 6.1615 12.4964 5.15721C12.2444 4.4804 11.9488 3.84901 11.6216 3.35087C10.3061 1.35156 8.44304 -0.206329 7.99309 0.0225365C6.35013 0.858448 5.17343 9.35082 6.21963 14.1976L6.16518 14.3818C6.16518 14.3818 0.786083 17.2575 0.416936 23.8607C0.416936 23.8607 1.52437 22.0501 4.003 21.4112C4.003 21.4112 -0.743201 24.127 0.10049 28.9198C0.852082 27.9667 2.06266 27.1318 3.45518 26.4942C2.26518 28.049 1.03402 30.558 1.12336 34.2379C1.12336 34.2379 2.29228 32.3869 4.6512 30.689C3.93575 32.216 3.36935 34.2896 3.42657 37.0001C3.42657 37.0001 6.4091 31.5566 12.4886 30.7776C12.9719 31.5626 13.4312 32.4256 13.8402 33.3777C14.5735 35.0846 15.8172 35.8701 16.8887 36.2315C17.2817 36.4972 17.8755 36.7238 18.7693 36.7238V7.03305Z" fill="white"/>
</svg>
